<svg id="Layer_1" data-name="Layer 1" 
    xmlns="http://www.w3.org/2000/svg" viewBox="0 0 68.03 68.03">
    <defs>
        <style>.cls-1{fill:#3e3d3c;}.cls-2{fill:none;stroke:#3e3d3c;stroke-miterlimit:10;stroke-width:2.13px;}</style>
    </defs>
    <title>Social Icons</title>
    <path class="cls-1" d="M42.22,24.16A1.84,1.84,0,1,0,44.05,26,1.83,1.83,0,0,0,42.22,24.16Zm-8.15,2.36a7.7,7.7,0,1,0,7.7,7.7A7.7,7.7,0,0,0,34.07,26.52Zm0,12.63A4.94,4.94,0,1,1,39,34.22,4.94,4.94,0,0,1,34.07,39.15ZM49.61,27.82a9.4,9.4,0,0,0-9.39-9.4H27.82a9.4,9.4,0,0,0-9.4,9.4v12.4a9.4,9.4,0,0,0,9.4,9.39h12.4a9.4,9.4,0,0,0,9.39-9.39Zm-2.94,12.4a6.45,6.45,0,0,1-6.45,6.45H27.82a6.46,6.46,0,0,1-6.46-6.45V27.82a6.46,6.46,0,0,1,6.46-6.46h12.4a6.46,6.46,0,0,1,6.45,6.46Z"/>
    <circle class="cls-2" cx="34.02" cy="34.02" r="27.53"/>
</svg>