<?xml version="1.0" encoding="utf-8"?>
<!-- Generator: Adobe Illustrator 27.0.0, SVG Export Plug-In . SVG Version: 6.00 Build 0)  -->
<svg version="1.1" id="Layer_1" xmlns="http://www.w3.org/2000/svg" xmlns:xlink="http://www.w3.org/1999/xlink" x="0px" y="0px"
	 viewBox="0 0 96 96" style="enable-background:new 0 0 96 96;" xml:space="preserve">
<style type="text/css">
	.st0{fill:#FFFFFF;}
	.st1{fill:#3E3D3C;stroke:#3E3D3C;stroke-width:1.14;stroke-miterlimit:10;}
</style>
<rect class="st0" width="96" height="96"/>
<path class="st1" d="M25.6,17.9c-0.1,0-0.1,0.1-0.1,0.1v59.8c0,0.1,0.1,0.1,0.1,0.1h6.8c0.1,0,0.1-0.1,0.1-0.1V18
	c0-0.1-0.1-0.1-0.1-0.1H25.6L25.6,17.9z"/>
<path class="st1" d="M63.7,40.8c-2.2-1.9-4.9-3.3-8.1-4.3c-2.2-0.7-4.5-1.2-7-1.4l-3.5-0.3c0,0-0.1,0-0.1,0.1s0,0.1,0.1,0.1l3.5,0.6
	c1.1,0.2,2.2,0.5,3.2,0.9c2.3,0.8,4.2,2.2,5.9,4c1.6,1.8,2.8,4,3.7,6.7c0.8,2.6,1.2,5.7,1.2,9.2s-0.4,6.6-1.2,9.2
	c-0.9,2.7-2.1,4.9-3.7,6.7c-1.6,1.8-3.6,3.2-5.9,4c-1,0.4-2.1,0.7-3.2,0.9L45,77.8c-0.1,0-0.1,0.1-0.1,0.1C44.9,78,45,78,45,78l0,0
	l3.5-0.3c2.5-0.2,4.9-0.7,7-1.4c3.2-1,5.9-2.5,8.1-4.3s3.8-4.1,5-6.7c1.2-2.6,1.8-5.6,1.8-8.9s-0.6-6.3-1.8-9
	C67.6,44.9,65.9,42.7,63.7,40.8L63.7,40.8z"/>
</svg>
